<svg width="121" height="96" viewBox="28 28 62 48" fill="none" xmlns="http://www.w3.org/2000/svg">
<path d="M31.2335 42.8405C34.9657 39.1528 38.8538 34.6232 42.5893 30.9725C42.9688 30.6015 56.5695 30.7888 57.9495 30.7871C61.8694 30.7664 65.7895 30.7715 69.7095 30.8025C71.1992 30.8116 75.3623 30.7189 76.5838 31.0924C78.729 33.625 81.1455 35.9927 83.3931 38.437C84.7092 39.8683 85.983 41.2571 87.4456 42.5438C87.004 44.2642 83.6932 47.1688 82.4247 48.5956C80.4681 50.7964 78.4837 53.0448 76.3268 55.0522C75.8775 55.4702 75.4719 55.9629 75.0188 56.365C74.2453 57.5186 72.8141 58.9702 71.8415 60.0257L67.9747 64.2764L67.8343 64.4769C66.4945 65.8744 60.5405 73.1637 59.402 73.3899C58.0159 72.5205 53.3309 66.8933 51.987 65.4985C51.1474 64.6271 49.4396 62.8713 48.5796 61.9409C43.559 56.5759 38.6354 51.1194 33.8113 45.5743C32.9779 44.6332 32.079 43.8196 31.2335 42.8405ZM66.1831 64.6738C67.4367 62.4631 68.9195 61.1767 70.5732 59.3699L78.3768 51.0521C79.4287 49.9382 85.2269 44.4021 85.354 43.2228L85.2519 43.1162C85.1157 43.1858 84.517 43.4974 84.4033 43.4866C83.6621 43.4159 82.9889 43.3754 82.2413 43.3941C78.6161 43.4843 74.8747 43.5849 71.2526 43.4775C69.6249 48.3158 67.8687 53.1095 65.9862 57.8531C64.8773 60.6929 63.5919 63.4468 62.7169 66.3757C62.5542 66.9201 61.3661 69.0756 61.4782 69.4301C61.9083 69.3668 64.5566 66.3153 65.1509 65.8157C65.3243 65.6699 65.9797 64.7963 66.1831 64.6738ZM62.4068 63.5393C62.9735 62.3219 63.4015 61.0938 63.886 59.8444C65.2273 56.3866 66.5913 52.8412 67.8441 49.3509L69.1236 45.881C69.3836 45.1538 69.6755 44.1615 70.0114 43.4962L53.1428 43.4547C52.0945 43.4423 49.1026 43.5893 48.2975 43.4376C48.2575 43.829 48.3873 43.7321 48.5272 44.0852C48.7833 44.7316 48.9909 45.4093 49.2425 46.0606C49.8648 47.6594 50.4993 49.2533 51.1457 50.8423C53.4161 56.4314 55.9812 61.8905 57.8611 67.6392C58.2066 68.6958 58.8086 69.8165 59.1994 70.9078L59.2413 70.8428C59.334 70.7006 59.5598 70.4966 59.6211 70.3674C60.3175 68.8996 61.0366 67.3211 61.6268 65.8121C61.9171 65.0697 62.1079 64.2498 62.4068 63.5393ZM57.4435 69.4128C56.2321 67.2478 56.3444 66.7171 55.5154 64.6368L51.2092 53.935C50.4157 51.9659 49.4809 50.0268 48.7185 48.0346C48.1177 46.4646 47.3549 45.0791 46.8726 43.4574C42.9286 43.3353 38.6083 43.5809 34.6263 43.5596C34.139 43.557 33.8111 43.3914 33.5139 43.3869C33.8124 43.8642 34.3612 44.3484 34.7412 44.7994C35.9327 46.2138 37.2379 47.5457 38.4628 48.9182C43.1583 54.2179 47.9366 59.4426 52.7959 64.5903C53.5671 65.4045 54.3349 66.1646 55.1572 66.9275C55.7551 67.4821 56.6767 69.0293 57.2485 69.4749C57.406 69.4759 57.3472 69.5076 57.4435 69.4128ZM48.2532 41.9752C49.6871 42.2092 53.0039 42.129 54.5868 42.1388C57.7297 42.1581 61.0217 42.2184 64.1532 42.1543C64.9393 42.1463 69.04 42.2229 69.3915 41.8772C69.3378 41.0359 68.5925 39.936 68.2915 39.215C67.7063 37.8133 65.3353 33.4246 65.0895 32.2189C64.5098 32.0988 62.2319 32.1517 61.4898 32.1518L53.8314 32.1674C53.4711 32.6999 53.3068 33.2916 53.0071 33.8493C51.528 36.6011 49.7331 39.2221 48.2532 41.9752ZM71.6882 42.1515C74.5963 42.2006 77.5051 42.1871 80.4127 42.1109C81.9829 42.1097 83.681 42.1913 85.2016 41.8807C82.3593 39.5483 79.8398 36.3825 77.2727 33.7363C76.9136 33.3662 76.5306 33.0345 76.2518 32.5973C75.6741 33.3258 75.3454 34.3502 74.9638 35.1979C74.0646 37.1958 72.9524 40.3958 71.6882 42.1515ZM44.0972 32.0717C44.2399 33.452 46.2761 39.2711 47.0375 40.3719C46.9509 40.8442 46.8713 41.2831 46.7557 41.7509C47.2533 40.92 48.6073 39.0895 48.9061 38.4904C50.4325 36.1511 51.3066 34.7793 52.4922 32.2451C50.2968 32.0794 46.3509 32.0721 44.0972 32.0717ZM36.5093 42.246C38.1871 42.1656 39.8663 42.118 41.5459 42.1034C42.588 42.0988 44.98 42.1617 45.8707 41.9877C46.4178 41.1156 43.8749 35.6819 43.7039 34.5233C43.6321 34.037 43.0924 33.2064 43.0433 32.5156L42.9455 32.4089C41.817 34.134 33.8723 40.9243 33.6949 42.1438L33.7856 42.2543C34.1195 42.1313 34.3445 42.0215 34.664 41.8621C35.0528 42.288 34.8302 42.1966 35.5528 42.2528C35.8198 42.2735 36.2306 42.2517 36.5093 42.246ZM72.3039 38.4018C72.9754 37.0853 73.5195 35.8123 74.09 34.4578C74.3667 33.8007 74.9475 32.9066 75.1751 32.2703C72.4666 32.0264 69.1049 32.1705 66.3479 32.1371C67.1385 34.0773 67.992 35.9908 68.9071 37.8747C69.3498 38.7855 70.2409 40.4522 70.5659 41.31C71.125 40.3183 71.8935 39.3643 72.3039 38.4018Z" fill="black"/>
<path d="M66.1831 64.6738C67.4368 62.4631 68.9196 61.1767 70.5733 59.3699C70.86 59.6502 70.9888 59.941 71.1739 60.2936C70.137 61.2395 68.2209 62.9235 67.9747 64.2764L67.8343 64.4769L67.823 64.3981C67.7409 63.7848 68.0168 63.6548 67.8569 63.299L67.7009 63.2265C67.0193 63.4826 66.7153 64.4066 66.1831 64.6738Z" fill="black"/>
<path d="M71.1739 60.2936C71.8573 59.608 74.4896 56.6857 75.0188 56.365C74.2453 57.5186 72.8141 58.9702 71.8415 60.0257L67.9747 64.2764C68.2209 62.9235 70.137 61.2395 71.1739 60.2936Z" fill="black"/>
</svg>
